#N canvas 31 204 970 570 16;
#X obj 75 155 one_pulse~;
#X floatatom 241 103 5 0 0 0 - - -;
#X obj 222 196 square_wave~ 10000 15000;
#X obj 101 511 dac~;
#X obj 68 106 bng 15 250 50 0 empty empty empty 17 7 0 10 -262144 -1
-1;
#N canvas 628 289 796 318 feedback2 0;
#X obj 147 22 block~ 1 1 1;
#X obj 45 54 inlet~;
#X obj 173 117 pqueue~;
#X obj 374 55 inlet~;
#X obj 605 207 outlet~;
#X obj 468 112 pqueue~;
#X obj 670 43 inlet~;
#X obj 172 78 tabread~ \$0-tab-1;
#X obj 50 218 tabsend~ \$0-tab-1;
#X obj 468 66 tabread~ \$0-tab-2;
#X obj 346 206 tabsend~ \$0-tab-2;
#X obj 286 23 table \$0-tab-1;
#X obj 445 24 table \$0-tab-2;
#X connect 1 0 8 0;
#X connect 2 0 10 0;
#X connect 3 0 2 1;
#X connect 5 0 4 0;
#X connect 5 0 8 0;
#X connect 6 0 5 1;
#X connect 7 0 2 0;
#X connect 9 0 5 0;
#X restore 105 424 pd feedback2;
#X floatatom 334 355 5 0 0 0 - - -;
#X obj 334 398 square_wave~ 10000 15000;
#X floatatom 558 311 5 0 0 0 - - -;
#X floatatom 495 310 5 0 0 0 - - -;
#X msg 328 101 0;
#X obj 97 466 lop~ 1000;
#X obj 734 290 samplerate~;
#X obj 492 352 *;
#X obj 557 355 *;
#X floatatom 452 110 5 0 0 0 - - -;
#X floatatom 389 109 5 0 0 0 - - -;
#X obj 738 103 samplerate~;
#X obj 386 151 *;
#X obj 451 154 *;
#X obj 724 52 loadbang;
#X connect 0 0 5 0;
#X connect 1 0 2 0;
#X connect 2 0 5 1;
#X connect 4 0 0 0;
#X connect 5 0 11 0;
#X connect 6 0 7 0;
#X connect 7 0 5 2;
#X connect 8 0 14 0;
#X connect 9 0 13 0;
#X connect 10 0 2 1;
#X connect 10 0 7 1;
#X connect 11 0 3 0;
#X connect 11 0 3 1;
#X connect 12 0 14 1;
#X connect 12 0 13 1;
#X connect 13 0 7 2;
#X connect 14 0 7 3;
#X connect 15 0 19 0;
#X connect 16 0 18 0;
#X connect 17 0 19 1;
#X connect 17 0 18 1;
#X connect 18 0 2 2;
#X connect 19 0 2 3;
#X connect 20 0 17 0;
#X connect 20 0 12 0;
