#N canvas 71 236 749 457 16;
#N canvas 0 101 450 300 feedback 0;
#X obj 147 22 block~ 1 1 1;
#X obj 286 23 table \$0-tab;
#X obj 45 54 inlet~;
#X obj 50 218 tabsend~ \$0-tab;
#X obj 172 78 tabread~ \$0-tab;
#X obj 173 117 pqueue~;
#X obj 374 55 inlet~;
#X obj 245 215 outlet~;
#X connect 2 0 3 0;
#X connect 4 0 5 0;
#X connect 5 0 3 0;
#X connect 5 0 7 0;
#X connect 6 0 5 1;
#X restore 136 111 pd feedback;
#X obj 135 71 one_pulse~;
#X floatatom 301 19 5 0 0 0 - - -;
#X floatatom 538 22 5 0 0 0 - - -;
#X obj 301 62 square_wave~ 10000 15000;
#X obj 132 198 dac~;
#X obj 128 22 bng 15 250 50 0 empty empty empty 17 7 0 10 -262144 -1
-1;
#X floatatom 448 19 5 0 0 0 - - -;
#X connect 0 0 5 0;
#X connect 0 0 5 1;
#X connect 1 0 0 0;
#X connect 2 0 4 0;
#X connect 3 0 4 3;
#X connect 4 0 0 1;
#X connect 6 0 1 0;
#X connect 7 0 4 2;
