#N canvas 896 248 590 455 16;
#X obj 196 311 pqueue~;
#X obj 113 201 pulse_train~;
#X obj 112 347 dac~;
#X floatatom 47 200 5 0 0 0 - - -;
#X obj 401 112 osc~;
#X obj 403 163 +~ 1;
#X obj 398 218 *~ 0.5;
#X floatatom 404 71 5 0 0 0 - - -;
#X obj 280 140 sig~ 1000;
#X obj 395 250 *~ 30000;
#X connect 0 0 2 1;
#X connect 0 0 2 0;
#X connect 1 0 0 0;
#X connect 3 0 1 0;
#X connect 4 0 5 0;
#X connect 5 0 6 0;
#X connect 6 0 9 0;
#X connect 7 0 4 0;
#X connect 9 0 0 1;
